<?xml version="1.0" standalone="no"?>
<!DOCTYPE svg PUBLIC "-//W3C//DTD SVG 20010904//EN"
 "http://www.w3.org/TR/2001/REC-SVG-20010904/DTD/svg10.dtd">
<svg version="1.0" xmlns="http://www.w3.org/2000/svg"
 width="400.000000pt" height="400.000000pt" viewBox="0 0 400.000000 400.000000"
 preserveAspectRatio="xMidYMid meet">
<metadata>
Created by potrace 1.11, written by Peter Selinger 2001-2013
</metadata>
<g transform="translate(0.000000,400.000000) scale(0.100000,-0.100000)"
fill="#000000" stroke="none">
<path d="M1979 3743 c-1 -5 -1 -11 0 -15 0 -5 -4 -8 -9 -8 -6 0 -22 -12 -35
-26 -14 -15 -25 -24 -25 -21 0 4 -21 -13 -46 -38 -25 -25 -50 -45 -55 -45 -6
0 -7 -4 -4 -10 3 -5 -1 -10 -9 -10 -9 0 -16 -7 -16 -16 0 -8 -4 -12 -10 -9 -5
3 -10 1 -10 -6 0 -7 -3 -10 -6 -6 -7 7 -90 -75 -86 -86 1 -5 -2 -6 -8 -2 -5 3
-10 1 -10 -5 0 -6 -4 -8 -10 -5 -9 6 -14 -8 -11 -28 1 -5 -3 -6 -9 -2 -6 3
-26 -10 -45 -29 -19 -20 -39 -36 -45 -36 -5 0 -10 -8 -11 -17 0 -12 -2 -13 -6
-5 -3 8 -16 -2 -35 -28 -18 -24 -36 -39 -44 -36 -8 3 -13 2 -13 -2 3 -18 -2
-33 -8 -29 -10 6 -34 -18 -27 -27 2 -3 1 -4 -2 -1 -11 8 -44 -15 -44 -30 0 -8
-6 -14 -12 -12 -7 1 -12 -4 -11 -10 2 -7 0 -12 -5 -10 -4 1 -17 -8 -30 -21
-12 -12 -27 -20 -32 -17 -6 4 -7 -1 -3 -11 5 -13 3 -16 -10 -11 -9 3 -16 3
-16 -1 3 -20 -2 -32 -13 -29 -7 1 -12 -4 -10 -11 1 -8 -2 -11 -7 -8 -10 7 -87
-64 -84 -76 2 -4 -4 -5 -13 -1 -9 3 -14 0 -12 -8 2 -8 -3 -13 -9 -12 -7 2 -13
-4 -13 -12 0 -9 -6 -12 -15 -9 -11 5 -13 2 -8 -12 4 -12 3 -15 -5 -10 -7 4
-12 2 -12 -4 0 -7 -7 -10 -14 -7 -10 4 -13 1 -9 -9 3 -9 -1 -14 -12 -14 -9 0
-14 -4 -11 -9 3 -4 -6 -13 -19 -19 -14 -7 -25 -16 -25 -22 0 -6 -4 -8 -10 -5
-5 3 -10 1 -10 -5 0 -14 -51 -56 -62 -53 -5 2 -7 0 -7 -5 4 -24 -3 -34 -21
-29 -11 3 -23 0 -27 -5 -4 -7 -1 -8 7 -3 8 5 11 3 9 -4 -3 -7 -8 -12 -12 -12
-4 1 -28 -19 -54 -44 -25 -25 -50 -45 -55 -45 -4 0 -8 -7 -8 -15 0 -9 -6 -12
-17 -8 -11 4 -14 3 -9 -5 4 -7 2 -12 -4 -12 -6 0 -9 -4 -6 -9 3 -5 -6 -12 -19
-15 -14 -4 -23 -11 -20 -16 3 -6 2 -10 -3 -10 -15 0 -52 -37 -44 -44 4 -4 3
-7 -3 -6 -21 5 -35 -1 -33 -12 2 -7 -4 -12 -12 -13 -8 -1 -14 -6 -12 -13 1 -7
-7 -12 -18 -12 -11 0 -20 -4 -20 -10 0 -5 8 -7 18 -5 9 3 1 -2 -18 -12 -19 -9
-38 -16 -42 -15 -4 1 -5 -5 -2 -13 5 -11 2 -13 -10 -9 -9 4 -16 3 -14 -2 4
-11 -38 -54 -45 -47 -3 2 -8 -5 -12 -16 -3 -12 -12 -21 -18 -21 -7 0 -19 -9
-27 -19 -7 -11 -17 -18 -22 -15 -7 5 -12 -10 -9 -29 1 -5 -3 -6 -8 -3 -5 3
-22 -7 -37 -23 -15 -17 -31 -28 -36 -25 -4 3 -8 0 -8 -6 0 -17 -26 -40 -35
-32 -5 4 -5 -1 -2 -11 4 -11 3 -16 -3 -12 -5 3 -25 -10 -45 -30 -19 -20 -35
-33 -35 -28 0 4 -12 -5 -26 -21 l-27 -28 28 -24 c16 -13 25 -24 22 -24 -3 0
14 -21 39 -46 24 -26 44 -50 44 -55 0 -5 7 -9 15 -9 10 0 12 -6 8 -17 -6 -16
-5 -16 10 -4 16 12 17 12 12 -5 -5 -13 -2 -12 7 4 8 12 17 19 21 16 6 -7 11
10 8 28 0 4 6 5 14 2 8 -4 15 -1 15 6 0 6 5 8 10 5 6 -3 10 1 10 9 0 9 6 16
13 16 17 0 47 36 39 46 -4 5 2 2 12 -6 13 -9 17 -10 12 -3 -9 15 43 65 61 58
8 -2 10 2 6 13 -4 10 -2 14 3 9 12 -12 13 -597 0 -590 -5 4 -6 1 0 -8 14 -22
14 -160 1 -152 -9 5 -9 3 -1 -8 6 -8 10 -38 10 -66 -1 -29 3 -53 8 -53 5 0 1
-7 -10 -16 -10 -8 -14 -13 -9 -10 7 3 11 -70 10 -225 0 -138 4 -229 9 -229 6
0 1 -7 -10 -16 -10 -8 -14 -13 -9 -10 7 3 11 -27 11 -84 0 -54 -4 -86 -10 -83
-5 4 -6 1 0 -8 14 -22 14 -160 1 -152 -7 4 -6 -1 2 -10 12 -15 86 -17 941 -19
715 -2 930 0 939 9 14 16 14 33 -1 33 -6 0 -3 7 8 16 10 8 14 13 7 9 -15 -7
-13 56 2 67 7 5 6 8 -1 8 -6 0 -10 15 -9 33 1 17 -3 38 -9 46 -8 11 -8 13 1 8
9 -6 11 3 8 33 -3 24 0 38 5 35 6 -3 7 1 4 9 -3 9 -11 16 -18 16 -6 0 -4 5 4
10 8 5 11 10 6 10 -5 0 -2 8 5 17 10 11 10 14 2 9 -7 -4 -13 -3 -13 3 0 5 5
13 11 17 8 5 6 10 -5 16 -13 7 -14 12 -3 29 10 16 9 21 -3 29 -8 5 -10 10 -4
10 7 0 11 14 8 35 -2 21 1 33 6 30 6 -3 7 1 4 9 -3 9 -11 16 -18 16 -6 0 -4 5
4 10 8 5 11 10 6 10 -5 0 -2 8 5 17 10 11 10 14 2 9 -7 -4 -13 -3 -13 3 0 5 5
13 11 17 8 5 6 10 -5 16 -13 7 -14 12 -3 29 10 16 9 21 -3 29 -8 5 -10 10 -4
10 7 0 11 14 8 35 -2 26 0 34 9 28 7 -4 6 1 -2 11 -13 15 -13 19 0 27 8 5 9 9
3 9 -13 0 -13 103 0 112 8 5 8 8 0 8 -6 0 -10 15 -9 35 2 19 -1 38 -6 41 -5 3
-5 14 1 25 6 11 8 24 4 30 -4 6 0 15 7 20 8 5 9 9 3 9 -6 0 -10 15 -9 33 1 17
-3 38 -9 46 -8 11 -8 13 2 7 16 -10 16 16 0 33 -10 11 -10 12 -1 7 10 -5 12 5
9 41 -3 35 1 51 13 59 12 9 18 9 23 1 5 -8 8 -7 8 3 0 13 1 13 10 0 9 -13 10
-13 10 0 0 13 1 13 10 0 9 -13 10 -13 10 0 0 13 1 13 10 0 9 -13 11 -13 20 0
9 13 11 13 20 0 9 -13 10 -13 10 0 0 13 1 13 10 0 9 -13 11 -13 20 0 9 13 11
13 20 0 9 -13 10 -13 10 0 0 13 1 13 10 0 9 -13 11 -13 20 0 9 13 11 13 20 0
9 -13 10 -13 10 0 0 13 1 13 10 0 9 -13 11 -13 20 0 9 13 11 13 20 0 9 -13 10
-13 10 0 0 13 1 13 10 0 9 -13 11 -13 20 0 9 13 11 13 20 0 9 -13 10 -13 10 0
0 13 1 13 10 0 9 -13 11 -13 20 0 9 13 11 13 20 0 9 -13 10 -13 10 0 0 13 1
13 10 0 9 -13 10 -13 10 0 0 13 1 13 10 0 9 -13 10 -13 10 0 0 13 1 13 10 0 9
-13 10 -13 10 0 0 13 1 13 10 0 9 -13 10 -13 10 0 0 13 1 13 10 0 9 -13 10
-13 10 0 0 13 1 13 10 0 9 -13 10 -13 10 0 0 13 1 13 10 0 9 -13 11 -13 20 0
9 13 11 13 20 0 9 -13 10 -13 10 0 0 13 1 13 10 0 9 -13 11 -13 20 0 9 13 11
13 20 0 9 -13 10 -13 10 0 0 13 1 13 10 0 9 -13 11 -13 20 0 6 10 13 11 18 5
9 -13 65 -16 73 -4 3 5 5 -19 5 -53 0 -35 -5 -66 -11 -70 -7 -5 -7 -8 0 -8 7
0 10 -35 9 -92 0 -53 4 -99 10 -107 8 -11 8 -13 0 -8 -8 4 -10 -33 -9 -128 1
-91 -2 -135 -9 -135 -7 0 -8 -3 -1 -8 6 -4 10 -45 10 -97 -1 -50 3 -96 9 -104
8 -11 8 -13 0 -8 -8 4 -10 -33 -9 -128 1 -91 -2 -135 -9 -135 -7 0 -8 -3 -1
-8 6 -4 11 -54 10 -122 l0 -115 217 -5 217 -5 11 24 c9 20 8 23 -7 17 -16 -5
-16 -4 -3 6 17 14 21 78 5 78 -5 0 -3 5 5 10 8 5 10 10 5 10 -6 0 -11 9 -11
20 0 14 5 19 15 15 11 -4 10 0 -4 15 -14 15 -15 20 -4 20 8 0 10 3 4 8 -17 12
-14 42 4 42 13 1 13 2 -3 11 -15 9 -16 13 -5 20 9 6 10 9 2 9 -8 0 -9 9 -2 32
11 40 11 40 1 34 -4 -2 -7 8 -6 22 1 15 3 40 3 55 1 19 5 26 13 21 7 -5 8 -3
4 5 -5 7 -15 10 -25 7 -15 -6 -15 -5 1 7 12 9 14 18 7 30 -7 11 -6 17 1 17 5
0 10 5 10 11 0 5 -4 8 -8 5 -4 -2 -8 4 -8 15 0 10 7 19 16 19 12 1 11 3 -4 11
-15 9 -16 13 -5 20 9 6 10 9 2 9 -8 0 -9 9 -2 32 11 41 11 41 -3 32 -7 -5 -8
-3 -3 5 11 20 12 71 1 71 -6 0 -4 5 4 10 8 5 10 10 5 10 -6 0 -11 9 -11 20 0
14 5 19 15 15 11 -4 10 0 -4 15 -14 15 -15 20 -4 20 8 0 10 3 4 8 -17 12 -14
42 4 42 13 1 13 2 -3 11 -15 9 -16 13 -5 20 9 6 10 9 2 9 -8 0 -9 9 -2 32 11
40 11 40 1 34 -4 -2 -7 8 -6 22 1 15 3 40 3 55 1 19 5 26 13 21 7 -5 8 -3 4 5
-5 7 -15 10 -25 7 -15 -6 -15 -5 1 7 12 9 14 18 7 30 -7 11 -6 17 1 17 17 0
11 28 -7 39 -17 10 -17 10 0 11 12 0 16 4 10 13 -12 20 -12 37 0 37 7 0 3 7
-7 15 -18 14 -18 15 -2 15 11 0 15 4 9 13 -12 20 -12 37 0 37 7 0 3 7 -7 15
-18 14 -18 15 -2 15 11 0 15 4 9 13 -12 20 -12 37 0 37 7 0 3 7 -7 15 -19 14
-19 15 -2 15 13 0 16 3 9 13 -10 12 -10 28 2 75 4 17 2 22 -6 16 -8 -5 -9 -3
-4 5 11 20 12 71 1 71 -6 0 -4 5 4 10 8 5 10 10 5 10 -14 0 -14 40 0 40 5 0 3
5 -5 10 -9 6 -11 10 -3 10 7 0 11 6 9 13 -1 6 -1 9 1 4 3 -4 10 -4 15 -1 7 4
8 2 4 -4 -4 -7 -1 -12 9 -12 9 0 14 -4 11 -9 -3 -5 8 -14 24 -21 16 -7 27 -16
24 -21 -3 -5 4 -9 16 -9 12 0 18 -4 15 -10 -3 -5 1 -10 10 -10 9 0 13 -4 10
-10 -5 -9 15 -15 38 -11 4 0 6 -2 6 -6 -4 -23 3 -32 18 -26 11 4 14 3 9 -5 -4
-7 -3 -12 3 -12 6 0 19 -10 31 -22 11 -12 20 -16 20 -9 0 7 4 10 9 7 4 -3 16
3 26 14 10 11 15 20 11 20 -4 0 18 25 49 56 30 31 52 61 48 66 -3 6 -1 8 4 5
6 -4 16 0 23 7 9 12 7 19 -10 36 -11 11 -26 18 -32 14 -6 -4 -8 -3 -5 3 4 6 0
14 -9 17 -8 3 -12 11 -8 17 4 8 3 9 -4 5 -7 -4 -12 -2 -12 3 0 6 -7 11 -15 11
-8 0 -14 3 -13 8 2 4 -1 9 -7 12 -5 2 -27 21 -48 42 -21 21 -42 38 -47 38 -5
0 -12 9 -15 20 -3 11 -13 20 -21 20 -8 0 -14 5 -14 10 0 6 -7 10 -16 10 -8 0
-12 5 -9 10 3 6 -1 10 -10 10 -9 0 -13 5 -10 10 3 6 -1 10 -9 10 -9 0 -16 5
-16 10 0 6 -5 10 -11 10 -16 0 -39 26 -31 35 4 5 -1 5 -10 2 -10 -3 -17 -3
-15 1 3 10 -49 62 -63 62 -10 0 -14 15 -11 34 1 5 -5 4 -13 -4 -13 -10 -16
-10 -16 4 0 14 -11 20 -32 17 -4 0 -5 6 -2 14 4 9 0 15 -8 15 -7 0 -20 9 -28
19 -7 11 -17 18 -22 15 -4 -3 -8 4 -8 16 0 12 -4 19 -8 16 -5 -3 -19 4 -31 15
-12 11 -27 17 -34 13 -7 -5 -5 0 3 11 9 11 10 16 2 11 -7 -4 -15 -1 -18 8 -3
9 -10 16 -16 16 -14 0 -38 27 -31 34 4 3 -3 6 -14 6 -23 0 -48 24 -39 39 4 5
2 13 -4 16 -7 5 -8 11 -1 19 6 7 6 18 1 26 -4 7 -5 23 0 35 4 12 4 29 -1 38
-7 11 -6 17 1 17 8 0 8 6 0 20 -6 11 -7 20 -3 20 4 0 8 14 8 30 0 17 -4 30 -8
30 -4 0 -3 9 3 20 6 11 7 20 3 20 -4 0 -8 14 -8 30 0 17 4 30 8 30 4 0 3 9 -3
20 -8 14 -8 20 0 20 7 0 8 6 2 17 -6 9 -6 29 -2 45 5 16 5 30 -1 34 -6 4 -6
11 1 19 8 10 8 15 0 20 -7 5 -8 11 -1 19 6 7 6 17 1 26 -5 9 -5 19 1 26 7 8 6
14 -1 19 -6 3 -7 12 -3 18 4 7 8 19 8 27 0 19 35 26 46 8 7 -11 9 -11 9 1 0 9
8 12 24 9 22 -5 24 -2 22 38 0 26 4 46 11 48 9 4 9 11 0 30 -7 14 -16 26 -20
26 -5 0 -5 -4 -2 -10 3 -6 -1 -7 -9 -4 -9 3 -13 11 -10 18 4 6 -1 3 -11 -6
-14 -13 -22 -14 -36 -5 -14 9 -21 9 -31 -1 -9 -9 -16 -8 -30 5 -10 9 -18 11
-18 5 0 -7 -18 -9 -51 -5 -42 5 -50 3 -45 -8 4 -8 0 -5 -8 5 -9 11 -16 15 -16
9 0 -8 -17 -10 -51 -6 -37 4 -50 2 -45 -6 5 -7 1 -9 -8 -5 -9 3 -13 11 -9 18
3 6 -3 3 -14 -7 -12 -10 -24 -14 -27 -9 -3 5 -46 9 -96 10 -52 0 -88 -3 -85
-9 3 -5 -1 -6 -9 -3 -9 3 -13 11 -9 18 3 6 -3 3 -14 -7 -14 -12 -23 -15 -28
-8 -3 6 -16 11 -29 11 -21 0 -23 -5 -25 -57 -1 -31 -3 -59 -6 -61 -9 -10 21
-29 39 -24 14 4 17 2 11 -9 -7 -12 -6 -12 9 0 15 13 19 13 27 0 7 -11 9 -11 9
-1 0 8 5 12 12 10 13 -5 19 -48 6 -48 -5 0 -6 -4 -3 -10 9 -15 10 -114 0 -130
-5 -9 -4 -11 3 -6 7 4 12 1 12 -6 0 -8 -9 -14 -20 -15 -11 -1 -18 2 -15 8 4 5
-3 9 -14 9 -11 0 -22 9 -26 20 -3 11 -10 20 -15 20 -14 0 -59 48 -52 55 4 3
-1 3 -11 -1 -11 -4 -17 -1 -17 9 0 8 -9 17 -20 20 -11 3 -20 13 -20 22 0 9 -4
13 -10 10 -5 -3 -10 -1 -10 6 0 7 -3 10 -6 6 -8 -8 -33 16 -27 26 2 4 -3 7
-11 7 -9 0 -16 4 -16 9 0 5 -9 13 -20 16 -11 4 -18 11 -14 16 3 6 -4 13 -16
16 -13 3 -19 11 -16 20 3 8 2 11 -4 8 -5 -3 -18 5 -30 17 -12 13 -27 23 -33
23 -7 1 -11 6 -10 13 2 7 -1 12 -7 12 -5 0 -25 15 -44 34 -19 19 -37 32 -40
29 -3 -4 -6 1 -6 10 0 10 -6 17 -14 17 -8 0 -24 13 -37 30 -13 16 -29 30 -34
30 -6 0 -17 9 -25 19 -7 11 -17 18 -22 15 -4 -3 -8 4 -8 16 0 12 -4 19 -9 15
-5 -3 -12 -1 -16 5 -7 12 -24 13 -26 3z m45 -404 c-3 -5 2 -9 10 -9 9 0 16 -8
16 -17 0 -14 2 -15 9 -5 6 10 10 6 15 -14 5 -20 10 -24 16 -15 6 10 9 8 15 -8
3 -12 11 -19 16 -16 5 4 9 -2 9 -11 0 -10 3 -15 6 -11 4 3 13 -1 21 -9 8 -8
19 -12 24 -9 5 4 6 -1 3 -9 -6 -15 6 -21 31 -16 6 1 7 -2 3 -6 -8 -7 28 -44
44 -44 4 0 8 -8 8 -17 0 -9 3 -13 7 -9 4 3 13 -4 21 -16 9 -16 12 -17 7 -4 -5
16 -3 17 10 6 8 -7 12 -17 8 -23 -4 -6 0 -8 11 -4 9 4 14 3 11 -2 -3 -5 -1
-12 5 -16 6 -4 7 -12 3 -18 -4 -7 2 -5 13 3 10 8 16 11 12 6 -8 -9 15 -36 30
-36 6 0 13 -7 16 -16 3 -8 10 -12 16 -9 5 3 10 -1 10 -10 0 -9 5 -13 10 -10 6
3 10 -2 10 -11 0 -10 3 -14 6 -11 4 3 19 -7 34 -23 15 -16 31 -26 35 -22 5 4
5 -1 2 -11 -4 -10 -3 -16 3 -12 5 3 18 -3 30 -15 11 -11 20 -17 20 -14 0 3 7
-1 15 -10 8 -8 15 -20 15 -26 0 -6 5 -8 10 -5 6 3 10 2 10 -3 0 -5 11 -15 25
-22 13 -7 22 -17 19 -22 -3 -4 2 -8 10 -8 9 0 21 -9 28 -20 7 -11 17 -20 21
-20 13 0 37 -27 30 -34 -4 -3 1 -6 10 -6 9 0 17 -4 17 -10 0 -5 7 -10 15 -10
14 0 20 -12 16 -33 -1 -5 3 -6 9 -2 12 7 40 -18 41 -37 0 -9 2 -10 6 -1 3 10
7 10 18 0 7 -7 11 -15 8 -19 -2 -5 3 -8 12 -8 17 0 75 -54 75 -71 0 -6 5 -7
10 -4 6 3 10 3 10 -2 0 -4 14 -16 31 -25 32 -19 31 -38 -2 -38 -11 0 -24 10
-29 23 -5 12 -9 19 -9 15 -1 -4 -15 6 -31 22 -19 19 -28 35 -24 43 6 9 3 8 -8
-1 -11 -9 -18 -10 -23 -2 -3 6 -11 8 -16 5 -8 -6 -13 8 -10 27 0 3 -13 12 -29
19 -15 7 -26 18 -23 23 4 5 -1 7 -10 3 -12 -5 -17 -1 -17 13 0 10 -5 22 -12
26 -7 5 -8 3 -3 -7 11 -18 -16 3 -62 48 -17 17 -34 28 -37 25 -3 -3 -6 0 -6 6
0 7 -7 12 -16 12 -8 0 -12 5 -9 10 3 6 1 10 -5 10 -6 0 -8 4 -5 10 3 6 -1 7
-9 4 -9 -3 -16 -1 -16 6 0 6 -4 9 -8 6 -5 -3 -14 4 -22 14 -8 10 -17 17 -22
14 -4 -3 -5 3 -1 12 4 12 2 15 -8 12 -8 -3 -18 5 -24 16 -6 11 -19 23 -30 25
-11 2 -30 14 -42 27 -12 13 -26 24 -30 24 -5 0 -17 9 -26 21 -15 17 -16 23 -5
36 12 15 11 15 -8 3 -19 -12 -24 -11 -37 2 -9 9 -13 19 -9 23 4 5 -1 5 -10 2
-17 -6 -23 3 -19 26 1 5 -3 6 -8 3 -12 -8 -33 19 -23 30 4 4 -2 2 -12 -6 -13
-10 -17 -10 -12 -2 4 7 1 12 -8 12 -9 0 -16 7 -16 16 0 8 -4 12 -10 9 -5 -3
-10 1 -10 10 0 9 -4 13 -10 10 -5 -3 -10 -1 -10 4 0 6 -7 11 -17 11 -9 0 -13
3 -10 7 4 3 -3 11 -16 18 -12 6 -21 17 -19 23 3 16 -15 15 -21 0 -3 -7 -6 -3
-6 10 -1 13 -5 20 -11 17 -5 -3 -10 -1 -10 5 0 6 -5 8 -10 5 -6 -4 -9 -1 -8 6
2 7 -4 13 -12 14 -8 0 -15 5 -15 12 0 6 -4 15 -9 20 -5 5 -6 3 -2 -4 4 -7 2
-13 -3 -13 -6 0 -11 5 -11 11 0 13 -40 48 -55 49 -5 0 -3 -5 5 -10 13 -8 12
-10 -5 -11 -11 -1 -24 -1 -28 0 -5 1 -6 -3 -2 -8 3 -6 -4 -15 -15 -21 -11 -6
-17 -16 -14 -22 4 -7 3 -8 -4 -4 -6 4 -17 -2 -24 -13 -9 -15 -15 -17 -25 -9
-11 8 -12 7 -7 -8 4 -10 4 -16 0 -13 -4 4 -20 -5 -35 -20 -48 -44 -82 -71 -92
-71 -6 0 -8 -4 -5 -9 5 -8 -42 -36 -56 -33 -4 1 -5 -5 -2 -13 4 -10 0 -15 -16
-15 -11 0 -18 -4 -15 -10 3 -5 0 -10 -7 -10 -7 0 -19 -9 -26 -21 -8 -12 -19
-18 -28 -15 -8 3 -13 2 -9 -3 7 -12 -22 -41 -40 -41 -8 0 -17 -10 -20 -21 -5
-16 -9 -18 -15 -9 -6 9 -10 7 -15 -9 -3 -12 -11 -19 -16 -16 -5 4 -9 -1 -9
-10 0 -9 -6 -15 -12 -13 -7 2 -14 -1 -15 -6 -1 -5 -12 -14 -25 -21 -13 -6 -22
-17 -21 -23 2 -7 -4 -9 -14 -5 -11 4 -14 3 -9 -5 4 -7 2 -12 -5 -12 -6 0 -18
-8 -26 -17 -8 -10 -11 -12 -7 -4 5 9 3 12 -4 7 -7 -4 -12 -13 -12 -21 0 -8 -5
-17 -12 -21 -7 -5 -9 -2 -3 7 4 8 -4 2 -17 -13 -14 -15 -28 -25 -32 -21 -3 3
-6 1 -6 -6 0 -7 -4 -10 -9 -6 -5 3 -12 -4 -16 -15 -3 -11 -12 -20 -19 -20 -7
0 -18 -10 -24 -22 -6 -13 -11 -18 -11 -11 -1 7 -15 -1 -31 -17 -17 -17 -35
-30 -41 -30 -6 0 -8 -4 -5 -9 4 -5 -7 -15 -24 -23 -16 -7 -30 -16 -30 -20 0
-5 -7 -8 -16 -8 -8 0 -12 -4 -9 -10 3 -5 -1 -10 -10 -10 -9 0 -13 -4 -10 -10
3 -5 -1 -10 -9 -10 -9 0 -16 -4 -16 -10 0 -5 -7 -10 -16 -10 -8 0 -12 -4 -9
-10 3 -5 -1 -10 -9 -10 -20 0 -20 14 -1 33 8 8 11 18 7 22 -4 4 -2 6 3 5 22
-5 35 1 35 14 0 8 9 18 20 21 11 3 20 11 20 17 0 6 3 9 6 6 3 -4 21 9 41 28
19 19 39 32 43 29 5 -3 12 0 16 6 4 8 3 9 -4 5 -7 -4 -12 -2 -12 3 0 6 5 11
11 11 6 0 24 11 41 25 16 14 27 25 23 25 -4 0 7 11 23 25 17 14 35 25 41 25 6
0 11 5 11 11 0 6 7 9 14 6 10 -4 13 -1 10 7 -3 8 4 16 15 19 12 3 21 12 21 21
0 9 7 16 16 16 8 0 13 4 9 9 -3 6 3 8 14 6 13 -2 18 1 15 10 -3 7 7 18 25 26
16 7 27 17 25 21 -3 4 0 8 7 8 7 0 29 19 50 43 21 23 43 43 49 43 5 1 15 2 20
3 6 0 9 7 8 14 -2 6 5 11 14 11 10 -1 15 2 13 7 -3 4 4 13 15 19 11 6 17 16
14 22 -4 7 -3 8 4 4 7 -4 12 -2 12 4 0 6 4 9 9 5 5 -3 12 4 16 14 4 13 11 18
22 14 11 -4 14 -2 9 5 -6 11 5 17 26 13 5 0 7 2 7 7 -3 19 2 33 10 28 5 -3 12
1 15 10 3 9 13 14 20 11 10 -4 14 0 11 13 -3 13 1 17 11 13 9 -3 14 1 14 12 0
9 5 13 10 10 6 -3 10 -1 10 4 0 6 6 11 13 11 7 0 23 14 35 30 13 18 32 30 45
30 18 0 19 2 7 10 -13 9 -7 14 13 11 4 0 7 4 7 10 0 5 3 8 8 6 10 -5 42 30 34
38 -4 3 2 3 12 -1 13 -5 17 -4 12 4 -5 8 -2 10 8 6 9 -3 13 -10 10 -15z
m-1107 -929 c1 -17 -2 -28 -7 -25 -5 3 -20 -4 -32 -16 -13 -12 -17 -18 -9 -14
10 5 12 4 7 -4 -4 -6 -11 -9 -16 -6 -5 3 -11 1 -15 -5 -9 -14 -22 -12 -28 4
-4 9 -1 13 6 11 7 -3 30 15 52 40 22 24 40 44 40 45 0 0 1 -14 2 -30z m2193
-10 c0 -5 5 -10 11 -10 17 0 41 -29 33 -41 -4 -7 -3 -9 3 -6 6 4 25 -6 42 -22
17 -16 31 -27 31 -23 0 3 9 -3 20 -13 24 -22 26 -35 4 -35 -10 0 -14 5 -10 16
3 8 2 12 -4 9 -5 -3 -18 2 -28 12 -10 10 -32 27 -48 38 -16 11 -40 31 -54 45
-14 13 -29 24 -33 22 -5 -1 -6 2 -2 8 8 13 35 13 35 0z m-2290 -81 c0 -5 -7
-9 -16 -9 -8 0 -13 -3 -11 -7 3 -5 -1 -14 -9 -21 -8 -7 -14 -11 -14 -8 0 2 -3
12 -7 22 -4 12 -3 15 5 10 7 -4 12 -1 12 9 0 9 5 13 10 10 6 -3 10 -1 10 5 0
6 5 8 10 5 6 -3 10 -10 10 -16z m-60 -45 c0 -8 -4 -12 -10 -9 -5 3 -10 -2 -10
-12 0 -15 -2 -16 -10 -3 -7 10 -5 18 5 26 8 6 11 15 7 19 -4 5 -1 5 6 1 6 -4
12 -14 12 -22z m-62 -56 c-11 -10 -25 -15 -31 -11 -6 4 -8 0 -5 -9 4 -8 -2
-19 -12 -26 -14 -9 -19 -8 -24 3 -3 10 0 12 12 8 9 -3 14 -2 9 2 -9 10 21 45
40 45 7 0 13 8 13 18 0 14 2 14 9 3 7 -11 3 -20 -11 -33z m2597 22 c-3 -5 -13
-10 -21 -10 -8 0 -12 5 -9 10 3 6 13 10 21 10 8 0 12 -4 9 -10z m20 -20 c-3
-5 1 -10 9 -10 9 0 16 -4 16 -10 0 -5 7 -10 16 -10 8 0 12 -4 9 -10 -3 -5 0
-10 7 -10 8 0 20 -9 28 -19 7 -11 18 -17 23 -14 6 3 7 1 3 -6 -4 -7 2 -15 16
-20 13 -6 16 -10 8 -10 -8 0 -29 12 -46 27 -60 51 -99 82 -106 82 -16 0 -8 20
8 20 8 0 12 -4 9 -10z m-2695 -60 c0 -5 -4 -10 -10 -10 -5 0 -10 5 -10 10 0 6
5 10 10 10 6 0 10 -4 10 -10z m-31 -36 c-5 -7 -19 -14 -31 -17 -16 -5 -18 -3
-9 6 7 7 17 12 24 12 7 0 11 9 9 20 -2 16 -1 17 7 5 6 -9 6 -18 0 -26z m2903
-54 c28 -26 11 -26 -22 0 -14 11 -19 20 -12 20 7 0 22 -9 34 -20z m-407 -488
c-3 -3 -11 0 -18 7 -9 10 -8 11 6 5 10 -3 15 -9 12 -12z"/>
<path d="M3217 2669 c7 -7 15 -10 18 -7 3 3 -2 9 -12 12 -14 6 -15 5 -6 -5z"/>
</g>
</svg>
